<svg width="42" height="25" viewBox="0 0 42 25" fill="none" xmlns="http://www.w3.org/2000/svg">
<path d="M38.2388 0H3.76129C3.6177 0 3.47385 0 3.33052 0.000778558C3.20935 0.00158071 3.08847 0.00283112 2.96758 0.00589817C2.70394 0.0125277 2.43804 0.02699 2.1777 0.0704949C1.9132 0.114755 1.66707 0.186948 1.42695 0.300618C1.19089 0.412235 0.974777 0.558226 0.787491 0.732435C0.600124 0.906643 0.443107 1.10725 0.323086 1.32697C0.200807 1.55023 0.123111 1.77915 0.075838 2.02527C0.0287964 2.2674 0.0131379 2.51458 0.00603302 2.75945C0.0027851 2.87184 0.00139204 2.98424 0.000602896 3.09661C0 3.23017 0 3.36363 0 3.49743V21.5028C0 21.6366 0 21.7699 0.000602896 21.9037C0.00139204 22.016 0.0027851 22.1284 0.00603302 22.2408C0.0131379 22.4855 0.0287964 22.7327 0.075838 22.9747C0.123111 23.2209 0.200807 23.4498 0.323086 23.6731C0.443107 23.8928 0.600124 24.0936 0.787491 24.2676C0.974777 24.4421 1.19089 24.588 1.42695 24.6994C1.66707 24.8134 1.9132 24.8856 2.1777 24.9298C2.43804 24.973 2.70394 24.9878 2.96758 24.9944C3.08847 24.9969 3.20935 24.9984 3.33052 24.999C3.47385 25 3.6177 25 3.76129 25H38.2388C38.3821 25 38.5259 25 38.6693 24.999C38.7901 24.9984 38.911 24.9969 39.0325 24.9944C39.2955 24.9878 39.5614 24.973 39.8224 24.9298C40.0865 24.8856 40.3327 24.8134 40.5728 24.6994C40.8092 24.588 41.0246 24.4421 41.2123 24.2676C41.3994 24.0936 41.5564 23.8928 41.6767 23.6731C41.7993 23.4498 41.8769 23.2209 41.9239 22.9747C41.971 22.7327 41.9863 22.4855 41.9934 22.2408C41.9967 22.1284 41.9983 22.016 41.9989 21.9037C42 21.7699 42 21.6366 42 21.5028V3.49743C42 3.36363 42 3.23017 41.9989 3.09661C41.9983 2.98424 41.9967 2.87184 41.9934 2.75945C41.9863 2.51458 41.971 2.2674 41.9239 2.02527C41.8769 1.77915 41.7993 1.55023 41.6767 1.32697C41.5564 1.10725 41.3994 0.906643 41.2123 0.732435C41.0246 0.558226 40.8092 0.412235 40.5728 0.300618C40.3327 0.186948 40.0865 0.114755 39.8224 0.0704949C39.5614 0.02699 39.2955 0.0125277 39.0325 0.00589817C38.911 0.00283112 38.7901 0.00158071 38.6693 0.000778558C38.5259 0 38.3821 0 38.2388 0Z" fill="#27251F"/>
<path d="M38.1498 1L38.5717 1.00074C38.686 1.00149 38.8003 1.00263 38.9152 1.00551C39.1152 1.01049 39.3491 1.02046 39.5671 1.05646C39.7566 1.08791 39.9155 1.13572 40.068 1.20725C40.2186 1.27774 40.3565 1.37011 40.477 1.48092C40.5979 1.59248 40.6983 1.71978 40.7758 1.86004C40.8531 1.99945 40.9046 2.14517 40.9386 2.32103C40.9775 2.51968 40.9883 2.73572 40.9938 2.92105C40.9969 3.02565 40.9984 3.13026 40.9989 3.23735C41 3.36686 41 3.4963 41 3.62606V21.3742C41 21.504 41 21.6332 40.9989 21.7654C40.9984 21.87 40.9969 21.9746 40.9938 22.0794C40.9883 22.2645 40.9775 22.4804 40.9381 22.6814C40.9046 22.8548 40.8531 23.0006 40.7754 23.1407C40.6981 23.2806 40.5979 23.4078 40.4775 23.5186C40.3564 23.6302 40.2189 23.7223 40.0665 23.7935C39.9151 23.8647 39.7565 23.9124 39.5688 23.9435C39.3464 23.98 39.1027 23.9901 38.9192 23.9947C38.8037 23.9971 38.6888 23.9985 38.5711 23.999C38.4308 24 38.2901 24 38.1498 24H3.85026C3.84839 24 3.84658 24 3.84468 24C3.706 24 3.56703 24 3.42582 23.999C3.31068 23.9985 3.1958 23.9971 3.08473 23.9948C2.89702 23.9901 2.65319 23.9801 2.43259 23.9438C2.24334 23.9124 2.08469 23.8647 1.93131 23.7925C1.78038 23.722 1.64298 23.63 1.52178 23.5182C1.40152 23.4076 1.30158 23.2808 1.22431 23.1407C1.14697 23.0007 1.09522 22.8545 1.06119 22.679C1.02186 22.4784 1.01106 22.2634 1.00566 22.0796C1.00257 21.9743 1.00129 21.8691 1.00056 21.7645L1 21.4557V21.3742V3.62606V3.54453L1.00053 3.23637C1.00129 3.13114 1.00257 3.02593 1.00566 2.92079C1.01106 2.73682 1.02186 2.52166 1.06152 2.31938C1.09524 2.14545 1.14697 1.99927 1.22472 1.8586C1.30138 1.71955 1.4015 1.59262 1.52239 1.48127C1.6428 1.3703 1.78065 1.27804 1.93254 1.20688C2.08428 1.1357 2.24324 1.08791 2.43249 1.05653C2.65054 1.02044 2.88457 1.01049 3.08501 1.00549C3.19926 1.00263 3.31351 1.00149 3.4269 1.00077L3.85026 1H38.1498Z" fill="white"/>
<path d="M11.4685 8.5648C11.8028 8.14672 12.0296 7.58536 11.9698 7.01172C11.4805 7.03605 10.8834 7.33453 10.5377 7.75294C10.2273 8.11124 9.95255 8.6961 10.0242 9.2457C10.5734 9.29334 11.1222 8.97115 11.4685 8.5648Z" fill="#27251F"/>
<path d="M11.9633 9.35475C11.1656 9.30723 10.4874 9.80746 10.1065 9.80746C9.72536 9.80746 9.14204 9.37869 8.51112 9.39025C7.68995 9.40231 6.928 9.8666 6.51129 10.6051C5.65419 12.0823 6.2851 14.2736 7.11859 15.4768C7.52335 16.072 8.01115 16.7274 8.65391 16.7039C9.2612 16.68 9.49924 16.3106 10.2374 16.3106C10.9751 16.3106 11.1895 16.7039 11.8324 16.6919C12.499 16.68 12.9158 16.0964 13.3206 15.5006C13.7849 14.8221 13.975 14.1669 13.9869 14.1309C13.975 14.119 12.7014 13.6304 12.6896 12.1654C12.6776 10.9388 13.6895 10.3553 13.7371 10.3191C13.1657 9.47399 12.2728 9.37869 11.9633 9.35475Z" fill="#27251F"/>
<path d="M18.909 7.69141C20.6427 7.69141 21.85 8.88647 21.85 10.6264C21.85 12.3725 20.6179 13.5738 18.8655 13.5738H16.946V16.6265H15.5591V7.69141H18.909ZM16.946 12.4097H18.5373C19.7448 12.4097 20.432 11.7596 20.432 10.6326C20.432 9.50574 19.7448 8.86175 18.5435 8.86175H16.946V12.4097Z" fill="#27251F"/>
<path d="M22.2124 14.7764C22.2124 13.6369 23.0855 12.9373 24.6336 12.8506L26.4168 12.7454V12.2439C26.4168 11.5194 25.9275 11.0859 25.1104 11.0859C24.3362 11.0859 23.8532 11.4574 23.7357 12.0395H22.4725C22.5468 10.863 23.5498 9.99609 25.1598 9.99609C26.7387 9.99609 27.748 10.832 27.748 12.1385V16.6277H26.4662V15.5565H26.4354C26.0577 16.281 25.2341 16.7392 24.3797 16.7392C23.1041 16.7392 22.2124 15.9466 22.2124 14.7764ZM26.4168 14.1881V13.6742L24.813 13.7732C24.0142 13.829 23.5623 14.1819 23.5623 14.7392C23.5623 15.3088 24.0328 15.6804 24.7511 15.6804C25.686 15.6804 26.4168 15.0364 26.4168 14.1881Z" fill="#27251F"/>
<path d="M28.958 19.0236V17.94C29.0569 17.9647 29.2797 17.9647 29.3913 17.9647C30.0104 17.9647 30.3448 17.7047 30.5491 17.036C30.5491 17.0235 30.6668 16.6397 30.6668 16.6335L28.314 10.1133H29.7627L31.41 15.4137H31.4346L33.0818 10.1133H34.4935L32.0537 16.9678C31.4967 18.5468 30.8527 19.0545 29.5028 19.0545C29.3913 19.0545 29.0569 19.0421 28.958 19.0236Z" fill="#27251F"/>
</svg>
