<svg width="16" height="14" viewBox="0 0 16 14" fill="none" xmlns="http://www.w3.org/2000/svg">
<path d="M11.7037 0C10.1156 0 8.74667 0.775326 8 2.05967C7.25333 0.775326 5.88444 0 4.2963 0C3.15727 0.00140949 2.06529 0.466806 1.25987 1.29411C0.454457 2.12141 0.00137221 3.24306 0 4.41304C0 6.58837 1.33333 8.86184 3.95556 11.1688C5.16635 12.227 6.47363 13.1629 7.85926 13.9635C7.9025 13.9874 7.95086 14 8 14C8.04914 14 8.0975 13.9874 8.14074 13.9635C9.52637 13.1629 10.8336 12.227 12.0444 11.1688C14.6667 8.86184 16 6.58837 16 4.41304C15.9986 3.24306 15.5455 2.12141 14.7401 1.29411C13.9347 0.466806 12.8427 0.00140949 11.7037 0ZM8 13.3472C6.96296 12.7385 0.592593 8.83141 0.592593 4.41304C0.593769 3.40444 0.984357 2.43749 1.67868 1.7243C2.37301 1.01111 3.31437 0.609904 4.2963 0.608695C5.86 0.608695 7.17407 1.46924 7.72593 2.85402C7.74825 2.90984 7.78622 2.95759 7.83502 2.99119C7.88383 3.02479 7.94125 3.04273 8 3.04273C8.05875 3.04273 8.11617 3.02479 8.16497 2.99119C8.21378 2.95759 8.25175 2.90984 8.27407 2.85402C8.82593 1.46924 10.14 0.608695 11.7037 0.608695C12.6856 0.609904 13.627 1.01111 14.3213 1.7243C15.0156 2.43749 15.4062 3.40444 15.4074 4.41304C15.4074 8.82608 9.03704 12.7415 8 13.3472Z" fill="black"/>
</svg>
