<svg width="12" height="10" viewBox="0 0 12 10" fill="none" xmlns="http://www.w3.org/2000/svg">
<path d="M8.77778 0C7.58667 0 6.56 0.553804 6 1.4712C5.44 0.553804 4.41333 0 3.22222 0C2.36795 0.00100678 1.54896 0.333433 0.944904 0.924362C0.340843 1.51529 0.00102915 2.31647 0 3.15217C0 4.70598 1 6.32989 2.96667 7.97771C3.87477 8.73359 4.85522 9.40208 5.89444 9.97391C5.92687 9.99103 5.96315 10 6 10C6.03685 10 6.07313 9.99103 6.10556 9.97391C7.14478 9.40208 8.12524 8.73359 9.03333 7.97771C11 6.32989 12 4.70598 12 3.15217C11.999 2.31647 11.6592 1.51529 11.0551 0.924362C10.451 0.333433 9.63205 0.00100678 8.77778 0ZM6 9.53369C5.22222 9.09891 0.444444 6.30815 0.444444 3.15217C0.445327 2.43174 0.738268 1.74106 1.25901 1.23164C1.77975 0.722218 2.48578 0.435645 3.22222 0.434782C4.395 0.434782 5.38056 1.04946 5.79444 2.03859C5.81119 2.07846 5.83967 2.11256 5.87627 2.13656C5.91287 2.16056 5.95594 2.17338 6 2.17338C6.04406 2.17338 6.08713 2.16056 6.12373 2.13656C6.16033 2.11256 6.18881 2.07846 6.20556 2.03859C6.61944 1.04946 7.605 0.434782 8.77778 0.434782C9.51422 0.435645 10.2202 0.722218 10.741 1.23164C11.2617 1.74106 11.5547 2.43174 11.5556 3.15217C11.5556 6.30435 6.77778 9.10108 6 9.53369Z" fill="black"/>
</svg>
