<?xml version="1.0" encoding="UTF-8"?>
<svg width="42px" height="25px" viewBox="0 0 42 25" version="1.1" xmlns="http://www.w3.org/2000/svg" xmlns:xlink="http://www.w3.org/1999/xlink">
    <title>4) Misc UI/Payments/iDeal</title>
    <g id="4)-Misc-UI/Payments/iDeal" stroke="none" stroke-width="1" fill="none" fill-rule="evenodd">
        <rect id="Rectangle" fill="#FFFFFF" x="0" y="0" width="42" height="25" rx="2"></rect>
        <g id="IDEAL_Logo_2020" transform="translate(7.000000, 0.000000)" fill-rule="nonzero">
            <path d="M0,1.85322461 L0,23.1467754 C0,24.1660489 0.823260372,25 1.82946749,25 L14.3887618,25 C23.8836981,25 28,19.6163825 28,12.4722016 C28,5.36508525 23.8836981,7.17771373e-15 14.3887618,7.17771373e-15 L1.82946749,7.17771373e-15 C0.823260372,7.17771373e-15 0,0.833951075 0,1.85322461 Z" id="Path" fill="#FFFFFF"></path>
            <path d="M8.40640314,5.2260934 L8.40640314,20.9599703 L15.1662855,20.9599703 C21.304149,20.9599703 23.9660242,17.4481097 23.9660242,12.4814678 C23.9660242,7.72794663 21.304149,4.04002965 15.1662855,4.04002965 L9.57726233,4.04002965 C8.92780137,4.04002965 8.40640314,4.57746479 8.40640314,5.2260934 Z" id="Path" fill="#CC0066"></path>
            <path d="M14.3887618,23.3042995 L3.4668409,23.3042995 C2.49722313,23.3042995 1.71055211,22.5074129 1.71055211,21.5252039 L1.71055211,3.48406227 C1.71055211,2.50185322 2.49722313,1.70496664 3.4668409,1.70496664 L14.3887618,1.70496664 C24.7526952,1.70496664 26.2985952,8.45997035 26.2985952,12.4814678 C26.2985952,19.4588584 22.063378,23.3042995 14.3887618,23.3042995 Z M3.4668409,2.29799852 C2.81737994,2.29799852 2.29598171,2.82616753 2.29598171,3.48406227 L2.29598171,21.5252039 C2.29598171,22.1830986 2.81737994,22.7112676 3.4668409,22.7112676 L14.3887618,22.7112676 C21.6883371,22.7112676 25.7131656,19.0789474 25.7131656,12.4814678 C25.7131656,3.62305411 18.6148318,2.29799852 14.3887618,2.29799852 L3.4668409,2.29799852 Z" id="Shape" fill="#000000"></path>
            <g id="Group" transform="translate(9.202221, 10.350259)" fill="#FFFFFF">
                <path d="M1.58248938,0.00926612305 C1.82032016,0.00926612305 2.03985626,0.0463306153 2.25024502,0.1204596 C2.46063378,0.194588584 2.63443319,0.315048184 2.78993793,0.463306153 C2.93629533,0.620830245 3.05521072,0.815418829 3.14668409,1.03780578 C3.22901013,1.26945886 3.27474681,1.53817643 3.27474681,1.85322461 C3.27474681,2.1312083 3.23815746,2.38139362 3.1741261,2.6130467 C3.1009474,2.84469978 3.00032669,3.04855448 2.86311663,3.2153447 C2.72590657,3.38213491 2.55210715,3.51186064 2.34171839,3.61378799 C2.13132963,3.70644922 1.88435152,3.76204596 1.60078406,3.76204596 L0,3.76204596 L0,2.63359057e-15 L1.58248938,2.63359057e-15 L1.58248938,0.00926612305 Z M1.52760536,3.07635285 C1.64652074,3.07635285 1.75628879,3.05782061 1.87520418,3.02075612 C1.98497223,2.98369162 2.08559294,2.91882876 2.16791898,2.82616753 C2.25024502,2.7335063 2.32342372,2.62231282 2.37830774,2.47405486 C2.43319177,2.32579689 2.46063378,2.15900667 2.46063378,1.94588584 C2.46063378,1.76056338 2.4423391,1.58450704 2.40574975,1.43624907 C2.36916041,1.2879911 2.30512904,1.14899926 2.22280301,1.04707191 C2.14047697,0.945144552 2.03070892,0.852483321 1.89349886,0.796886583 C1.75628879,0.741289844 1.59163672,0.713491475 1.3903953,0.713491475 L0.804965697,0.713491475 L0.804965697,3.08561898 L1.52760536,3.08561898 L1.52760536,3.07635285 Z" id="Shape"></path>
                <polygon id="Path" points="6.57693564 0.00926612305 6.57693564 0.704225352 4.61940542 0.704225352 4.61940542 1.51037806 6.4214309 1.51037806 6.4214309 2.14974055 4.61940542 2.14974055 4.61940542 3.06708673 6.62267233 3.06708673 6.62267233 3.76204596 3.80529239 3.76204596 3.80529239 2.63359057e-15 6.57693564 2.63359057e-15"></polygon>
                <path d="M9.37602091,0.00926612305 L10.7664162,3.77131208 L9.91571382,3.77131208 L9.63214636,2.93736101 L8.24175106,2.93736101 L7.94903626,3.77131208 L7.12577589,3.77131208 L8.52531852,0.00926612305 L9.37602091,0.00926612305 Z M9.4217576,2.31653076 L8.95524338,0.935878428 L8.94609605,0.935878428 L8.46128716,2.31653076 L9.4217576,2.31653076 Z" id="Shape"></path>
                <polygon id="Path" points="12.0927801 0.00926612305 12.0927801 3.07635285 13.903953 3.07635285 13.903953 3.77131208 11.2786671 3.77131208 11.2786671 0.00926612305"></polygon>
            </g>
            <ellipse id="Oval" fill="#000000" cx="5.35119242" cy="12.2405486" rx="1.71055211" ry="1.73276501"></ellipse>
            <path d="M6.640967,20.9599703 C5.20483502,20.9599703 4.0522705,19.7831727 4.0522705,18.3376575 L4.0522705,16.2898443 C4.0522705,15.5670867 4.62855276,14.9740549 5.35119242,14.9740549 C6.06468474,14.9740549 6.65011434,15.5578206 6.65011434,16.2898443 L6.65011434,20.9599703 L6.640967,20.9599703 Z" id="Path" fill="#000000"></path>
        </g>
    </g>
</svg>