<svg width="42" height="25" viewBox="0 0 42 25" fill="none" xmlns="http://www.w3.org/2000/svg">
<path d="M40 0H2C0.89543 0 0 0.89543 0 2V23C0 24.1046 0.89543 25 2 25H40C41.1046 25 42 24.1046 42 23V2C42 0.89543 41.1046 0 40 0Z" fill="#FFB3C7"/>
<path d="M38.074 13.6699C37.5245 13.6699 37.079 14.1193 37.079 14.6739C37.079 15.2283 37.5245 15.6778 38.074 15.6778C38.6235 15.6778 39.069 15.2283 39.069 14.6739C39.069 14.1193 38.6235 13.6699 38.074 13.6699ZM34.8005 12.8937C34.8005 12.1345 34.1575 11.5192 33.3642 11.5192C32.5709 11.5192 31.9278 12.1345 31.9278 12.8937C31.9278 13.6528 32.5708 14.2683 33.3642 14.2683C34.1576 14.2683 34.8005 13.6528 34.8005 12.8937ZM34.8058 10.2223H36.391V15.5649H34.8058V15.2234C34.358 15.5316 33.8174 15.7128 33.2344 15.7128C31.6915 15.7128 30.4406 14.4506 30.4406 12.8936C30.4406 11.3366 31.6915 10.0746 33.2344 10.0746C33.8174 10.0746 34.358 10.2557 34.8058 10.564V10.2222V10.2223ZM22.12 10.9182V10.2223H20.497V15.5648H22.1236V13.0705C22.1236 12.2289 23.0275 11.7766 23.6547 11.7766C23.6612 11.7766 23.6672 11.7772 23.6736 11.7773V10.2228C23.0298 10.2228 22.4378 10.5009 22.12 10.9183L22.12 10.9182ZM18.0771 12.8937C18.0771 12.1345 17.434 11.5192 16.6407 11.5192C15.8475 11.5192 15.2043 12.1345 15.2043 12.8937C15.2043 13.6528 15.8475 14.2683 16.6407 14.2683C17.4341 14.2683 18.0771 13.6528 18.0771 12.8937ZM18.0824 10.2223H19.6677V15.5649H18.0824V15.2234C17.6346 15.5316 17.094 15.7128 16.511 15.7128C14.968 15.7128 13.7172 14.4506 13.7172 12.8936C13.7172 11.3367 14.968 10.0746 16.511 10.0746C17.094 10.0746 17.6346 10.2558 18.0824 10.564V10.2223V10.2223ZM27.6239 10.0786C26.9906 10.0786 26.3913 10.277 25.9906 10.8243V10.2226H24.4123V15.5649H26.01V12.7574C26.01 11.9449 26.5499 11.5471 27.2 11.5471C27.8967 11.5471 28.2973 11.9671 28.2973 12.7463V15.5649H29.8806V12.1675C29.8806 10.9242 28.9009 10.0787 27.6239 10.0787V10.0786ZM11.4081 15.5649H13.0673V7.84148H11.4081V15.5649ZM4.11963 15.567H5.87654V7.84005H4.11963V15.567ZM10.2647 7.84003C10.2647 9.51286 9.61865 11.069 8.46747 12.2257L10.896 15.5673H8.726L6.08672 11.9357L6.76788 11.4209C7.89749 10.5671 8.54541 9.26196 8.54541 7.84003H10.2647H10.2647Z" fill="#0A0B09"/>
</svg>
