<svg width="26" height="37" viewBox="0 0 26 37" fill="none" xmlns="http://www.w3.org/2000/svg">
<path d="M13 36.5L12.2 35.6C11.7 35.1 0 21.3 0 13C0 5.8 5.8 0 13 0C20.2 0 26 5.8 26 13C26 21.3 14.3 35.1 13.8 35.7L13 36.5ZM13 2C6.9 2 2 6.9 2 13C2 19.4 10.4 30.2 13 33.4C15.6 30.2 24 19.4 24 13C24 6.9 19.1 2 13 2Z" fill="black"/>
<path d="M13 18C10.2 18 8 15.8 8 13C8 10.2 10.2 8 13 8C15.8 8 18 10.2 18 13C18 15.8 15.8 18 13 18ZM13 10C11.3 10 10 11.3 10 13C10 14.7 11.3 16 13 16C14.7 16 16 14.7 16 13C16 11.3 14.7 10 13 10Z" fill="black"/>
</svg>
