<svg xmlns="http://www.w3.org/2000/svg" viewBox="0 0 38 25"><g fill="none" fill-rule="evenodd"><rect fill="#006" width="38.235" height="23" rx="1.667"/><path d="M21.46 11.686c0 4.132-3.34 7.48-7.46 7.48-4.122 0-7.462-3.348-7.462-7.48 0-4.131 3.34-7.48 7.461-7.48s7.462 3.349 7.462 7.48" fill="#C00"/><path d="M24.017 4.205a7.425 7.425 0 00-5.762 2.729h1.507c.206.25.396.515.57.792h-2.646a7.522 7.522 0 00-.43.792h3.505c.12.257.225.52.316.792H16.94a7.463 7.463 0 00-.217.792h4.57a7.554 7.554 0 01-.216 3.96H16.94c.09.272.196.536.316.793h3.505a7.5 7.5 0 01-.43.792h-2.645c.172.276.362.54.569.792h1.507a7.468 7.468 0 01-.754.792 7.424 7.424 0 005.01 1.936c4.12 0 7.46-3.35 7.46-7.48 0-4.132-3.34-7.482-7.46-7.482" fill="#F90"/><path d="M12.257 12.505a1.39 1.39 0 00-.18-.013c-.46 0-.692.158-.692.47 0 .192.113.314.29.314.33 0 .568-.314.582-.77zm.59 1.375h-.672l.015-.32c-.204.253-.478.373-.849.373-.439 0-.74-.343-.74-.842 0-.752.524-1.19 1.422-1.19.093 0 .21.008.33.024a.764.764 0 00.032-.2c0-.205-.14-.281-.52-.281a2.695 2.695 0 00-.857.139l.113-.694c.403-.12.67-.164.97-.164.695 0 1.063.313 1.063.905.001.159-.025.354-.066.612-.07.446-.221 1.405-.242 1.638zm-2.585 0h-.81l.464-2.917L8.88 13.88h-.552l-.068-2.9-.488 2.9h-.758l.633-3.794h1.165l.07 2.124.711-2.124h1.296l-.627 3.794m14.756-1.375a1.383 1.383 0 00-.18-.013c-.46 0-.692.158-.692.47 0 .192.113.314.29.314.33 0 .568-.314.582-.77zm.59 1.375h-.672l.016-.32c-.205.253-.478.373-.849.373-.44 0-.74-.343-.74-.842 0-.752.524-1.19 1.422-1.19.092 0 .21.008.33.024a.759.759 0 00.032-.2c0-.205-.141-.281-.52-.281a2.7 2.7 0 00-.858.139c.01-.052.113-.694.113-.694.404-.12.67-.164.97-.164.695 0 1.064.313 1.063.905.001.159-.025.354-.066.612-.07.446-.221 1.405-.241 1.638zm-9.162-.047c-.222.07-.394.1-.582.1-.414 0-.64-.238-.64-.678-.006-.136.06-.495.111-.822.047-.288.352-2.106.352-2.106h.805l-.094.467h.486l-.11.742h-.488c-.093.587-.227 1.318-.228 1.415 0 .159.084.228.277.228.093 0 .164-.01.219-.029l-.108.683m2.469-.025a2.732 2.732 0 01-.826.125c-.902 0-1.372-.472-1.372-1.376 0-1.055.598-1.832 1.41-1.832.664 0 1.088.435 1.088 1.117 0 .226-.03.447-.1.759h-1.603c-.054.448.231.634.7.634.288 0 .548-.06.837-.194l-.134.767zm-.453-1.83c.005-.064.086-.55-.375-.55-.256 0-.44.196-.514.55h.89zm-5.13-.208c0 .39.189.66.617.861.328.155.379.2.379.34 0 .193-.145.28-.465.28a2.27 2.27 0 01-.726-.122l-.112.713c.184.04.349.077.843.091.855 0 1.25-.326 1.25-1.031 0-.424-.165-.673-.571-.86-.34-.156-.379-.191-.379-.335 0-.167.135-.252.397-.252.159 0 .376.017.582.046l.115-.716a5.455 5.455 0 00-.713-.06c-.906 0-1.22.475-1.217 1.045m9.523-.963c.225 0 .435.058.724.205l.132-.824c-.119-.047-.536-.321-.89-.321-.542 0-1 .27-1.323.715-.47-.157-.664.159-.9.473l-.21.05a1.58 1.58 0 00.025-.31h-.744c-.102.955-.282 1.922-.423 2.878l-.037.207h.81c.136-.881.21-1.445.255-1.827l.305-.17c.046-.17.188-.227.475-.22a3.465 3.465 0 00-.058.632c0 1.01.544 1.638 1.416 1.638.224 0 .417-.03.716-.11l.142-.865c-.269.132-.488.194-.688.194-.47 0-.756-.348-.756-.924 0-.836.424-1.421 1.029-1.421m6.858-.721l-.18 1.096c-.221-.292-.46-.504-.773-.504-.409 0-.78.31-1.025.768-.339-.07-.69-.19-.69-.19v.003a4.58 4.58 0 00.036-.465h-.744c-.101.956-.281 1.923-.422 2.879l-.037.207h.81c.11-.712.193-1.304.255-1.773.277-.251.416-.47.695-.455-.124.3-.196.646-.196 1.001 0 .771.389 1.28.978 1.28.297 0 .525-.102.747-.34l-.038.287h.766l.617-3.794h-.799zM28.7 13.167c-.276 0-.415-.205-.415-.608 0-.607.26-1.037.628-1.037.278 0 .43.213.43.605 0 .611-.266 1.04-.643 1.04z" fill="#006"/><path fill="#FFF" d="M10.495 13.655h-.81l.465-2.917-1.037 2.917h-.552l-.068-2.9-.488 2.9h-.758L7.88 9.86h1.165l.033 2.349.786-2.35h1.258l-.627 3.795m1.995-1.374a1.343 1.343 0 00-.18-.012c-.46 0-.692.157-.692.47 0 .191.113.314.29.314.33 0 .568-.315.582-.772zm.59 1.375h-.672l.016-.32c-.205.253-.478.373-.85.373-.439 0-.74-.344-.74-.843 0-.751.524-1.189 1.423-1.189.092 0 .21.008.33.024a.768.768 0 00.032-.2c0-.205-.141-.28-.52-.28a2.685 2.685 0 00-.857.137l.112-.693c.404-.12.67-.164.97-.164.695 0 1.063.313 1.063.905a3.96 3.96 0 01-.066.611c-.07.447-.221 1.406-.242 1.639zm10.864-3.692l-.132.823c-.29-.145-.5-.204-.724-.204-.605 0-1.029.586-1.029 1.421 0 .576.285.924.756.924.2 0 .42-.062.688-.194l-.142.864a2.522 2.522 0 01-.716.111c-.872 0-1.416-.628-1.416-1.638 0-1.356.751-2.304 1.825-2.304.354 0 .772.15.89.197m1.307 2.317a1.333 1.333 0 00-.18-.012c-.46 0-.692.157-.692.47 0 .191.114.314.29.314.33 0 .568-.315.582-.772zm.59 1.375h-.671l.015-.32c-.205.253-.478.373-.849.373-.44 0-.74-.344-.74-.843 0-.751.523-1.189 1.422-1.189.092 0 .21.008.33.024a.764.764 0 00.032-.2c0-.205-.141-.28-.52-.28a2.686 2.686 0 00-.857.137l.112-.693c.404-.12.67-.164.97-.164.695 0 1.064.313 1.063.905a3.84 3.84 0 01-.066.611c-.07.447-.22 1.406-.241 1.639zm-9.161-.047c-.222.07-.395.1-.583.1-.414 0-.64-.238-.64-.677-.005-.137.06-.495.111-.823.047-.288.352-2.106.352-2.106h.805l-.094.467h.413l-.11.742h-.415c-.093.587-.227 1.318-.228 1.415 0 .16.085.228.277.228a.651.651 0 00.219-.029l-.108.683m2.469-.024a2.751 2.751 0 01-.826.124c-.902 0-1.371-.472-1.371-1.376 0-1.055.597-1.832 1.408-1.832.665 0 1.089.435 1.089 1.117 0 .227-.03.447-.1.759h-1.603c-.054.448.232.634.7.634.288 0 .548-.06.837-.194l-.134.768zm-.452-1.83c.004-.065.085-.551-.375-.551-.256 0-.44.196-.515.55h.89zm-5.131-.209c0 .39.189.659.617.862.328.154.379.2.379.34 0 .192-.145.28-.465.28a2.27 2.27 0 01-.726-.122l-.111.712c.184.04.348.077.842.091.855 0 1.25-.326 1.25-1.03 0-.425-.165-.674-.571-.86-.34-.157-.379-.192-.379-.336 0-.167.135-.253.397-.253.159 0 .376.018.582.047l.115-.716a5.5 5.5 0 00-.713-.06c-.906 0-1.22.475-1.217 1.045m16.563 2.11h-.766l.038-.287c-.222.238-.45.34-.747.34-.589 0-.978-.508-.978-1.28 0-1.026.604-1.892 1.318-1.892.314 0 .552.129.773.421l.18-1.096h.8l-.618 3.794zm-1.195-.713c.377 0 .642-.429.642-1.04 0-.392-.15-.605-.429-.605-.367 0-.628.43-.628 1.037 0 .404.14.608.415.608zM26.57 10.57c-.101.954-.281 1.922-.422 2.877l-.037.208h.81c.29-1.887.36-2.255.814-2.21.073-.386.208-.724.308-.894-.34-.071-.529.121-.777.486.02-.158.055-.311.049-.468h-.745m-6.668.001c-.102.954-.282 1.922-.423 2.877l-.036.208h.81c.29-1.887.36-2.255.813-2.21.073-.386.208-.724.308-.894-.339-.071-.528.121-.776.486.02-.158.055-.311.048-.468h-.744"/></g></svg>