<svg width="28" height="16" viewBox="0 0 28 16" fill="none" xmlns="http://www.w3.org/2000/svg">
<path d="M26.666 1.25H1.33398C1.20138 1.25 1.0742 1.19732 0.980431 1.10355C0.886663 1.00979 0.833984 0.882608 0.833984 0.75C0.833984 0.617392 0.886663 0.490214 0.980431 0.396446C1.0742 0.302678 1.20138 0.25 1.33398 0.25H26.666C26.7986 0.25 26.9258 0.302678 27.0195 0.396446C27.1133 0.490214 27.166 0.617392 27.166 0.75C27.166 0.882608 27.1133 1.00979 27.0195 1.10355C26.9258 1.19732 26.7986 1.25 26.666 1.25ZM26.666 8.5H1.33398C1.20138 8.5 1.0742 8.44732 0.980431 8.35355C0.886663 8.25979 0.833984 8.13261 0.833984 8C0.833984 7.86739 0.886663 7.74021 0.980431 7.64645C1.0742 7.55268 1.20138 7.5 1.33398 7.5H26.666C26.7986 7.5 26.9258 7.55268 27.0195 7.64645C27.1133 7.74021 27.166 7.86739 27.166 8C27.166 8.13261 27.1133 8.25979 27.0195 8.35355C26.9258 8.44732 26.7986 8.5 26.666 8.5ZM26.666 15.75H1.33398C1.20138 15.75 1.0742 15.6973 0.980431 15.6036C0.886663 15.5098 0.833984 15.3826 0.833984 15.25C0.833984 15.1174 0.886663 14.9902 0.980431 14.8964C1.0742 14.8027 1.20138 14.75 1.33398 14.75H26.666C26.7986 14.75 26.9258 14.8027 27.0195 14.8964C27.1133 14.9902 27.166 15.1174 27.166 15.25C27.166 15.3826 27.1133 15.5098 27.0195 15.6036C26.9258 15.6973 26.7986 15.75 26.666 15.75Z" fill="black"/>
</svg>
