<svg width="200" height="193" viewBox="0 0 200 193" fill="none" xmlns="http://www.w3.org/2000/svg">
<path d="M188 56.0121H138.81C143.394 53.9868 147.65 51.2906 151.44 48.0121C154.068 45.6749 156.185 42.8199 157.658 39.6261C159.131 36.4323 159.929 32.9685 160 29.4521C160.113 25.5552 159.429 21.6763 157.99 18.0532C156.551 14.4301 154.386 11.1393 151.63 8.3826C148.873 5.62593 145.582 3.46151 141.959 2.02213C138.336 0.582749 134.457 -0.101246 130.56 0.0120996C127.044 0.0834924 123.58 0.880697 120.386 2.35371C117.192 3.82673 114.337 5.94378 112 8.5721C106.09 15.2421 102.37 23.9321 100 32.2621C97.65 23.9321 93.93 15.2621 88 8.5721C85.6628 5.94378 82.8078 3.82673 79.614 2.35371C76.4202 0.880697 72.9564 0.0834924 69.44 0.0120996C65.5431 -0.101246 61.6642 0.582749 58.0411 2.02213C54.418 3.46151 51.1272 5.62593 48.3705 8.3826C45.6138 11.1393 43.4494 14.4301 42.01 18.0532C40.5707 21.6763 39.8867 25.5552 40 29.4521C40.0714 32.9685 40.8686 36.4323 42.3416 39.6261C43.8146 42.8199 45.9317 45.6749 48.56 48.0121C52.3498 51.2906 56.6064 53.9868 61.19 56.0121H12C8.8174 56.0121 5.76516 57.2764 3.51472 59.5268C1.26428 61.7773 0 64.8295 0 68.0121V100.012C0 103.195 1.26428 106.247 3.51472 108.497C5.76516 110.748 8.8174 112.012 12 112.012H16V180.012C16 183.195 17.2643 186.247 19.5147 188.497C21.7652 190.748 24.8174 192.012 28 192.012H172C175.183 192.012 178.235 190.748 180.485 188.497C182.736 186.247 184 183.195 184 180.012V112.012H188C191.183 112.012 194.235 110.748 196.485 108.497C198.736 106.247 200 103.195 200 100.012V68.0121C200 64.8295 198.736 61.7773 196.485 59.5268C194.235 57.2764 191.183 56.0121 188 56.0121ZM118 13.8721C119.615 12.0671 121.586 10.6149 123.789 9.60659C125.991 8.59825 128.378 8.05543 130.8 8.0121H131.41C134.165 8.01502 136.891 8.56992 139.428 9.64404C141.965 10.7182 144.261 12.2897 146.18 14.2659C148.099 16.2421 149.603 18.5828 150.603 21.1499C151.602 23.717 152.077 26.4584 152 29.2121C151.957 31.6341 151.414 34.021 150.406 36.2235C149.397 38.426 147.945 40.3967 146.14 42.0121C134.05 52.7121 113.07 55.2221 104.14 55.8021C104.76 46.9421 107.26 26.0121 118 13.8721ZM48 29.2121C47.9225 26.4584 48.3976 23.717 49.3972 21.1499C50.3968 18.5828 51.9007 16.2421 53.82 14.2659C55.7394 12.2897 58.0352 10.7182 60.572 9.64404C63.1088 8.56992 65.8352 8.01502 68.59 8.0121H69.2C71.622 8.05543 74.0089 8.59825 76.2114 9.60659C78.4139 10.6149 80.3846 12.0671 82 13.8721C92.71 25.9621 95.21 46.9421 95.79 55.8721C86.9 55.2921 65.92 52.7821 53.79 42.0821C51.9891 40.4525 50.545 38.4678 49.5486 36.2528C48.5521 34.0379 48.0249 31.6407 48 29.2121ZM8 100.012V68.0121C8 66.9512 8.42143 65.9338 9.17157 65.1837C9.92172 64.4335 10.9391 64.0121 12 64.0121H96V104.012H12C10.9391 104.012 9.92172 103.591 9.17157 102.841C8.42143 102.09 8 101.073 8 100.012ZM24 180.012V112.012H96V184.012H28C26.9391 184.012 25.9217 183.591 25.1716 182.841C24.4214 182.09 24 181.073 24 180.012ZM176 180.012C176 181.073 175.579 182.09 174.828 182.841C174.078 183.591 173.061 184.012 172 184.012H104V112.012H176V180.012ZM192 100.012C192 101.073 191.579 102.09 190.828 102.841C190.078 103.591 189.061 104.012 188 104.012H104V64.0121H188C189.061 64.0121 190.078 64.4335 190.828 65.1837C191.579 65.9338 192 66.9512 192 68.0121V100.012Z" fill="black"/>
</svg>
