<svg xmlns="http://www.w3.org/2000/svg" viewBox="0 0 38 25"><g transform="matrix(1 0 0 -1 0 23)" fill="none" fill-rule="evenodd"><rect fill="#00457C" width="38.235" height="23" rx="1.667"/><path d="M29.986 14.57l-.77-4.92a.157.157 0 01.154-.181h.776a.26.26 0 01.257.22l.76 4.831a.157.157 0 01-.154.182h-.868a.156.156 0 01-.155-.133m-9.67-1.609h-.904a.26.26 0 01-.216-.116l-1.248-1.842-.528 1.77a.262.262 0 01-.25.187h-.89a.157.157 0 01-.148-.207l.996-2.931-.936-1.325a.157.157 0 01.127-.248h.904c.085 0 .166.042.215.113l3.007 4.352a.157.157 0 01-.129.246m7.356-1.755a1.004 1.004 0 00-1.015-.862c-.261 0-.47.084-.605.244-.133.157-.183.383-.14.633.08.511.495.868 1.008.868.255 0 .463-.085.6-.246.137-.162.192-.388.152-.637m1.254 1.755h-.9a.157.157 0 01-.155-.132l-.039-.252-.063.09c-.195.284-.63.38-1.063.38-.994 0-1.843-.756-2.008-1.815-.086-.529.036-1.034.335-1.386.274-.324.666-.459 1.133-.459.801 0 1.246.516 1.246.516l-.04-.25a.157.157 0 01.154-.182h.81c.129 0 .238.094.258.22l.487 3.089a.157.157 0 01-.155.181M14.27 11.204a1.004 1.004 0 00-1.015-.862c-.261 0-.47.084-.604.244-.133.157-.184.383-.141.633.08.511.495.868 1.008.868.255 0 .463-.085.6-.246.137-.162.192-.388.152-.637m1.254 1.755h-.9a.157.157 0 01-.154-.132l-.04-.252-.063.09c-.195.284-.629.38-1.063.38-.994 0-1.843-.756-2.008-1.815-.086-.529.036-1.034.335-1.386.275-.324.666-.459 1.133-.459a1.72 1.72 0 011.246.516l-.04-.25a.157.157 0 01.154-.182h.81c.13 0 .238.094.259.22l.486 3.089a.157.157 0 01-.155.181m-5.399-.021c-.103-.677-.618-.677-1.116-.677h-.284l.2 1.263a.156.156 0 00.154.132h.13c.339 0 .66 0 .825-.193.098-.116.128-.288.09-.525m-.216 1.764H8.029a.261.261 0 01-.258-.221l-.76-4.83a.157.157 0 01.155-.182h.897c.129 0 .238.094.258.22l.205 1.304c.02.127.13.221.258.221h.594c1.238 0 1.953.6 2.14 1.79.083.521.003.93-.24 1.217-.268.314-.741.48-1.37.48m13.619-1.763c-.103-.677-.618-.677-1.116-.677h-.284l.199 1.263a.156.156 0 00.155.132h.13c.339 0 .66 0 .824-.193.1-.116.129-.288.092-.525m-.217 1.764h-1.88a.261.261 0 01-.257-.221l-.76-4.83a.157.157 0 01.155-.182h.964c.09 0 .166.066.18.155l.216 1.37c.02.126.13.22.258.22h.594c1.238 0 1.952.6 2.139 1.79.084.521.003.93-.24 1.217-.267.314-.74.48-1.37.48" fill="#FFF"/></g></svg>