<svg width="18" height="24" viewBox="0 0 18 24" fill="none" xmlns="http://www.w3.org/2000/svg">
<path d="M12.78 0.238708C12.7113 0.165022 12.6285 0.105919 12.5365 0.0649275C12.4445 0.0239355 12.3452 0.00189351 12.2445 0.000116721C12.1438 -0.00166006 12.0438 0.0168646 11.9504 0.0545856C11.857 0.0923066 11.7722 0.148451 11.701 0.21967C11.6297 0.290889 11.5736 0.375723 11.5359 0.469111C11.4982 0.562499 11.4796 0.662528 11.4814 0.763231C11.4832 0.863934 11.5052 0.963247 11.5462 1.05525C11.5872 1.14725 11.6463 1.23005 11.72 1.29871L15.44 5.01871H0.75C0.551088 5.01871 0.360322 5.09773 0.21967 5.23838C0.0790175 5.37903 0 5.5698 0 5.76871C0 5.96762 0.0790175 6.15839 0.21967 6.29904C0.360322 6.43969 0.551088 6.51871 0.75 6.51871H15.44L11.72 10.2387C11.6463 10.3074 11.5872 10.3902 11.5462 10.4822C11.5052 10.5742 11.4832 10.6735 11.4814 10.7742C11.4796 10.8749 11.4982 10.9749 11.5359 11.0683C11.5736 11.1617 11.6297 11.2465 11.701 11.3177C11.7722 11.389 11.857 11.4451 11.9504 11.4828C12.0438 11.5206 12.1438 11.5391 12.2445 11.5373C12.3452 11.5355 12.4445 11.5135 12.5365 11.4725C12.6285 11.4315 12.7113 11.3724 12.78 11.2987L17.78 6.29871C17.9205 6.15808 17.9993 5.96746 17.9993 5.76871C17.9993 5.56996 17.9205 5.37933 17.78 5.23871L12.78 0.238708ZM6.28 12.7987C6.35369 12.73 6.41279 12.6472 6.45378 12.5552C6.49477 12.4632 6.51682 12.3639 6.51859 12.2632C6.52037 12.1625 6.50184 12.0625 6.46412 11.9691C6.4264 11.8757 6.37026 11.7909 6.29904 11.7197C6.22782 11.6485 6.14299 11.5923 6.0496 11.5546C5.95621 11.5169 5.85618 11.4983 5.75548 11.5001C5.65478 11.5019 5.55546 11.5239 5.46346 11.5649C5.37146 11.6059 5.28866 11.665 5.22 11.7387L0.22 16.7387C0.0795493 16.8793 0.000659943 17.07 0.000659943 17.2687C0.000659943 17.4675 0.0795493 17.6581 0.22 17.7987L5.22 22.7987C5.28866 22.8724 5.37146 22.9315 5.46346 22.9725C5.55546 23.0135 5.65478 23.0355 5.75548 23.0373C5.85618 23.0391 5.95621 23.0206 6.0496 22.9828C6.14299 22.9451 6.22782 22.889 6.29904 22.8177C6.37026 22.7465 6.4264 22.6617 6.46412 22.5683C6.50184 22.4749 6.52037 22.3749 6.51859 22.2742C6.51682 22.1735 6.49477 22.0742 6.45378 21.9822C6.41279 21.8902 6.35369 21.8074 6.28 21.7387L2.56 18.0187H17.25C17.4489 18.0187 17.6397 17.9397 17.7803 17.799C17.921 17.6584 18 17.4676 18 17.2687C18 17.0698 17.921 16.879 17.7803 16.7384C17.6397 16.5977 17.4489 16.5187 17.25 16.5187H2.56L6.28 12.7987Z" fill="black"/>
</svg>
