<svg width="15" height="15" viewBox="0 0 15 15" fill="none" xmlns="http://www.w3.org/2000/svg">
<path d="M2 9.00002V13.5C2 13.6326 2.05268 13.7598 2.14645 13.8536C2.24021 13.9473 2.36739 14 2.5 14H12.5C12.6326 14 12.7598 13.9473 12.8536 13.8536C12.9473 13.7598 13 13.6326 13 13.5V9.00002M1 4.00002V6.00002C1 6.13263 1.05268 6.25981 1.14645 6.35358C1.24021 6.44735 1.36739 6.50002 1.5 6.50002H13.5C13.6326 6.50002 13.7598 6.44735 13.8536 6.35358C13.9473 6.25981 14 6.13263 14 6.00002V4.00002M1 4.00002L2.22 1.55002C2.30386 1.38359 2.43257 1.2439 2.59159 1.14672C2.75062 1.04954 2.93364 0.998727 3.12 1.00002H11.88C12.0664 0.998727 12.2494 1.04954 12.4084 1.14672C12.5674 1.2439 12.6961 1.38359 12.78 1.55002L14 4.00002M1 4.00002H14M8.5 9.00002V14M2 10.5H8.5" stroke="black" stroke-width="0.5" stroke-linecap="round" stroke-linejoin="round"/>
</svg>
