<svg width="232" height="160" viewBox="0 0 232 160" fill="none" xmlns="http://www.w3.org/2000/svg">
<path d="M231.71 58.52L217.71 23.52C216.816 21.2994 215.279 19.3969 213.296 18.0568C211.312 16.7168 208.974 16.0005 206.58 16H168V4C168 2.93913 167.579 1.92172 166.828 1.17157C166.078 0.421428 165.061 0 164 0H12C8.8174 0 5.76516 1.26428 3.51472 3.51472C1.26428 5.76515 0 8.8174 0 12V124C0 127.183 1.26428 130.235 3.51472 132.485C5.76516 134.736 8.8174 136 12 136H32.29C33.2561 142.66 36.5884 148.749 41.6771 153.153C46.7658 157.557 53.2703 159.981 60 159.981C66.7297 159.981 73.2342 157.557 78.3229 153.153C83.4116 148.749 86.7439 142.66 87.71 136H144.29C145.256 142.66 148.588 148.749 153.677 153.153C158.766 157.557 165.27 159.981 172 159.981C178.73 159.981 185.234 157.557 190.323 153.153C195.412 148.749 198.744 142.66 199.71 136H220C223.183 136 226.235 134.736 228.485 132.485C230.736 130.235 232 127.183 232 124V60C231.998 59.4927 231.9 58.9905 231.71 58.52ZM168 24H206.58C207.38 23.9984 208.162 24.2367 208.825 24.6842C209.488 25.1316 210.002 25.7676 210.3 26.51L222.09 56H168V24ZM8 12C8 10.9391 8.42143 9.92172 9.17157 9.17157C9.92172 8.42142 10.9391 8 12 8H160V80H8V12ZM60 152C56.0444 152 52.1776 150.827 48.8886 148.629C45.5996 146.432 43.0362 143.308 41.5224 139.654C40.0087 135.999 39.6126 131.978 40.3843 128.098C41.156 124.219 43.0608 120.655 45.8579 117.858C48.6549 115.061 52.2186 113.156 56.0982 112.384C59.9778 111.613 63.9991 112.009 67.6537 113.522C71.3082 115.036 74.4318 117.6 76.6294 120.889C78.827 124.178 80 128.044 80 132C80 137.304 77.8929 142.391 74.1421 146.142C70.3914 149.893 65.3043 152 60 152ZM144.29 128H87.71C86.7439 121.34 83.4116 115.251 78.3229 110.847C73.2342 106.443 66.7297 104.019 60 104.019C53.2703 104.019 46.7658 106.443 41.6771 110.847C36.5884 115.251 33.2561 121.34 32.29 128H12C10.9391 128 9.92172 127.579 9.17157 126.828C8.42143 126.078 8 125.061 8 124V88H160V106.71C155.832 108.692 152.217 111.672 149.477 115.386C146.737 119.1 144.955 123.433 144.29 128ZM172 152C168.044 152 164.178 150.827 160.889 148.629C157.6 146.432 155.036 143.308 153.522 139.654C152.009 135.999 151.613 131.978 152.384 128.098C153.156 124.219 155.061 120.655 157.858 117.858C160.655 115.061 164.219 113.156 168.098 112.384C171.978 111.613 175.999 112.009 179.654 113.522C183.308 115.036 186.432 117.6 188.629 120.889C190.827 124.178 192 128.044 192 132C192 137.304 189.893 142.391 186.142 146.142C182.391 149.893 177.304 152 172 152ZM224 124C224 125.061 223.579 126.078 222.828 126.828C222.078 127.579 221.061 128 220 128H199.71C198.648 120.651 194.711 114.025 188.765 109.579C182.818 105.132 175.349 103.23 168 104.29V64H224V124Z" fill="black"/>
</svg>
