<svg xmlns="http://www.w3.org/2000/svg" viewBox="0 0 38 25"><g fill="none" fill-rule="evenodd"><rect fill="#26337A" width="38.235" height="23" rx="1.667"/><path fill="#FFFFFE" d="M15.864 15.16l1.175-7.312h1.88l-1.176 7.312h-1.88m8.697-7.133a4.635 4.635 0 00-1.684-.306c-1.858 0-3.166.992-3.177 2.413-.012 1.05.933 1.637 1.646 1.986.732.358.978.587.975.907-.005.49-.584.714-1.125.714-.752 0-1.152-.11-1.77-.383l-.241-.116-.263 1.636c.438.204 1.25.38 2.093.39 1.975 0 3.258-.98 3.273-2.497.007-.834-.494-1.466-1.578-1.987-.657-.34-1.06-.564-1.056-.907 0-.304.34-.63 1.077-.63.615-.01 1.06.133 1.406.282l.17.083.254-1.585m2.502 4.54c.156-.42.749-2.043.749-2.043-.011.019.154-.424.25-.698l.126.63.435 2.111h-1.56zm2.318-4.712h-1.452c-.45 0-.788.13-.985.606l-2.79 6.701h1.973s.322-.901.395-1.1l2.407.005c.056.255.229 1.095.229 1.095H30.9l-1.52-7.307zm-15.093-.001l-1.84 4.985-.196-1.013c-.343-1.168-1.41-2.433-2.603-3.067l1.682 6.394 1.99-.001 2.959-7.298h-1.992"/><path d="M10.74 7.849H7.71l-.025.152c2.358.605 3.918 2.067 4.566 3.825l-.659-3.36c-.113-.463-.443-.6-.852-.617" fill="#EC982D"/></g></svg>